<svg xmlns="http://www.w3.org/2000/svg" viewBox="0 0 800 90" preserveAspectRatio="none">
  <defs>
    <linearGradient id="bld1" x1="0" y1="0" x2="0" y2="1">
      <stop offset="0%" stop-color="#8898a8"/><stop offset="100%" stop-color="#6a7a8a"/>
    </linearGradient>
    <linearGradient id="bld2" x1="0" y1="0" x2="0" y2="1">
      <stop offset="0%" stop-color="#7888a0"/><stop offset="100%" stop-color="#5a6a82"/>
    </linearGradient>
    <linearGradient id="bld3" x1="0" y1="0" x2="0" y2="1">
      <stop offset="0%" stop-color="#9098a8"/><stop offset="100%" stop-color="#7a8898"/>
    </linearGradient>
  </defs>
  <g opacity="0.7">
    <!-- buildings with windows -->
    <rect x="0" y="50" width="18" height="40" fill="url(#bld1)"/>
    <rect x="22" y="28" width="22" height="62" fill="url(#bld2)"/>
    <rect x="48" y="40" width="15" height="50" fill="url(#bld3)"/>
    <rect x="67" y="15" width="20" height="75" fill="url(#bld1)"/>
    <rect x="91" y="35" width="16" height="55" fill="url(#bld2)"/>
    <rect x="111" y="8" width="12" height="82" fill="url(#bld3)"/>
    <rect x="127" y="25" width="24" height="65" fill="url(#bld1)"/>
    <rect x="155" y="42" width="14" height="48" fill="url(#bld2)"/>
    <rect x="173" y="18" width="20" height="72" fill="url(#bld3)"/>
    <rect x="197" y="32" width="16" height="58" fill="url(#bld1)"/>
    <rect x="217" y="48" width="18" height="42" fill="url(#bld2)"/>
    <rect x="239" y="12" width="15" height="78" fill="url(#bld3)"/>
    <rect x="258" y="28" width="22" height="62" fill="url(#bld1)"/>
    <rect x="284" y="38" width="14" height="52" fill="url(#bld2)"/>
    <rect x="302" y="6" width="18" height="84" fill="url(#bld3)"/>
    <rect x="324" y="35" width="20" height="55" fill="url(#bld1)"/>
    <rect x="348" y="20" width="16" height="70" fill="url(#bld2)"/>
    <rect x="368" y="45" width="14" height="45" fill="url(#bld3)"/>
    <rect x="386" y="15" width="22" height="75" fill="url(#bld1)"/>
    <rect x="412" y="30" width="16" height="60" fill="url(#bld2)"/>
    <rect x="432" y="10" width="14" height="80" fill="url(#bld3)"/>
    <rect x="450" y="38" width="20" height="52" fill="url(#bld1)"/>
    <rect x="474" y="22" width="18" height="68" fill="url(#bld2)"/>
    <rect x="496" y="42" width="14" height="48" fill="url(#bld3)"/>
    <rect x="514" y="14" width="22" height="76" fill="url(#bld1)"/>
    <rect x="540" y="32" width="16" height="58" fill="url(#bld2)"/>
    <rect x="560" y="48" width="18" height="42" fill="url(#bld3)"/>
    <rect x="582" y="8" width="14" height="82" fill="url(#bld1)"/>
    <rect x="600" y="28" width="22" height="62" fill="url(#bld2)"/>
    <rect x="626" y="38" width="16" height="52" fill="url(#bld3)"/>
    <rect x="646" y="18" width="20" height="72" fill="url(#bld1)"/>
    <rect x="670" y="35" width="14" height="55" fill="url(#bld2)"/>
    <rect x="688" y="12" width="18" height="78" fill="url(#bld3)"/>
    <rect x="710" y="30" width="22" height="60" fill="url(#bld1)"/>
    <rect x="736" y="42" width="16" height="48" fill="url(#bld2)"/>
    <rect x="756" y="20" width="20" height="70" fill="url(#bld3)"/>
    <rect x="780" y="34" width="14" height="56" fill="url(#bld1)"/>
  </g>
  <!-- windows (lit) -->
  <g fill="#ffe8a0" opacity="0.35">
    <rect x="25" y="32" width="2" height="2.5"/><rect x="30" y="32" width="2" height="2.5"/>
    <rect x="25" y="38" width="2" height="2.5"/><rect x="30" y="38" width="2" height="2.5"/>
    <rect x="25" y="44" width="2" height="2.5"/><rect x="30" y="44" width="2" height="2.5"/>
    <rect x="70" y="20" width="2" height="2.5"/><rect x="76" y="20" width="2" height="2.5"/>
    <rect x="70" y="26" width="2" height="2.5"/><rect x="76" y="26" width="2" height="2.5"/>
    <rect x="70" y="32" width="2" height="2.5"/><rect x="76" y="32" width="2" height="2.5"/>
    <rect x="70" y="38" width="2" height="2.5"/><rect x="76" y="38" width="2" height="2.5"/>
    <rect x="114" y="14" width="2" height="2.5"/><rect x="114" y="22" width="2" height="2.5"/>
    <rect x="114" y="30" width="2" height="2.5"/><rect x="114" y="38" width="2" height="2.5"/>
    <rect x="130" y="30" width="2" height="2.5"/><rect x="136" y="30" width="2" height="2.5"/>
    <rect x="142" y="30" width="2" height="2.5"/><rect x="130" y="36" width="2" height="2.5"/>
    <rect x="176" y="22" width="2" height="2.5"/><rect x="182" y="22" width="2" height="2.5"/>
    <rect x="176" y="28" width="2" height="2.5"/><rect x="182" y="28" width="2" height="2.5"/>
    <rect x="242" y="16" width="2" height="2.5"/><rect x="242" y="24" width="2" height="2.5"/>
    <rect x="305" y="12" width="2" height="2.5"/><rect x="311" y="12" width="2" height="2.5"/>
    <rect x="305" y="20" width="2" height="2.5"/><rect x="311" y="20" width="2" height="2.5"/>
    <rect x="389" y="20" width="2" height="2.5"/><rect x="395" y="20" width="2" height="2.5"/>
    <rect x="389" y="28" width="2" height="2.5"/><rect x="395" y="28" width="2" height="2.5"/>
    <rect x="435" y="16" width="2" height="2.5"/><rect x="435" y="24" width="2" height="2.5"/>
    <rect x="517" y="18" width="2" height="2.5"/><rect x="523" y="18" width="2" height="2.5"/>
    <rect x="585" y="14" width="2" height="2.5"/><rect x="585" y="22" width="2" height="2.5"/>
    <rect x="649" y="22" width="2" height="2.5"/><rect x="655" y="22" width="2" height="2.5"/>
    <rect x="691" y="16" width="2" height="2.5"/><rect x="697" y="16" width="2" height="2.5"/>
  </g>
  <!-- windows (dark) -->
  <g fill="#3a4a5a" opacity="0.3">
    <rect x="25" y="50" width="2" height="2.5"/><rect x="30" y="50" width="2" height="2.5"/>
    <rect x="70" y="44" width="2" height="2.5"/><rect x="76" y="44" width="2" height="2.5"/>
    <rect x="136" y="36" width="2" height="2.5"/><rect x="142" y="36" width="2" height="2.5"/>
    <rect x="176" y="34" width="2" height="2.5"/><rect x="182" y="34" width="2" height="2.5"/>
    <rect x="242" y="32" width="2" height="2.5"/><rect x="242" y="40" width="2" height="2.5"/>
    <rect x="305" y="28" width="2" height="2.5"/><rect x="311" y="28" width="2" height="2.5"/>
  </g>
  <!-- antennas -->
  <g stroke="#6a7a8a" stroke-width="1" opacity="0.6">
    <line x1="117" y1="8" x2="117" y2="-4"/>
    <line x1="308" y1="6" x2="308" y2="-6"/>
    <line x1="439" y1="10" x2="439" y2="-2"/>
    <line x1="591" y1="8" x2="591" y2="-4"/>
  </g>
  <g fill="#ff3333" opacity="0.5">
    <circle cx="117" cy="-4" r="1.5"/>
    <circle cx="308" cy="-6" r="1.5"/>
    <circle cx="439" cy="-2" r="1.5"/>
    <circle cx="591" cy="-4" r="1.5"/>
  </g>
</svg>
