<svg xmlns="http://www.w3.org/2000/svg" viewBox="0 0 800 70" preserveAspectRatio="none">
  <defs>
    <linearGradient id="bld-far" x1="0" y1="0" x2="0" y2="1">
      <stop offset="0%" stop-color="#aab8c8"/>
      <stop offset="100%" stop-color="#98a8b8"/>
    </linearGradient>
  </defs>
  <g fill="url(#bld-far)" opacity="0.55">
    <rect x="0" y="40" width="12" height="30"/>
    <rect x="15" y="25" width="16" height="45"/>
    <rect x="34" y="35" width="10" height="35"/>
    <rect x="48" y="18" width="14" height="52"/>
    <rect x="66" y="30" width="11" height="40"/>
    <rect x="80" y="10" width="8" height="60"/>
    <rect x="92" y="22" width="18" height="48"/>
    <rect x="114" y="32" width="12" height="38"/>
    <rect x="130" y="15" width="15" height="55"/>
    <rect x="148" y="28" width="10" height="42"/>
    <rect x="162" y="38" width="14" height="32"/>
    <rect x="180" y="20" width="11" height="50"/>
    <rect x="195" y="12" width="16" height="58"/>
    <rect x="215" y="30" width="13" height="40"/>
    <rect x="232" y="22" width="10" height="48"/>
    <rect x="246" y="35" width="18" height="35"/>
    <rect x="268" y="16" width="12" height="54"/>
    <rect x="284" y="28" width="14" height="42"/>
    <rect x="302" y="8" width="10" height="62"/>
    <rect x="316" y="32" width="16" height="38"/>
    <rect x="336" y="20" width="11" height="50"/>
    <rect x="350" y="38" width="14" height="32"/>
    <rect x="368" y="14" width="13" height="56"/>
    <rect x="385" y="25" width="10" height="45"/>
    <rect x="399" y="30" width="18" height="40"/>
    <rect x="420" y="18" width="12" height="52"/>
    <rect x="436" y="34" width="14" height="36"/>
    <rect x="454" y="10" width="10" height="60"/>
    <rect x="468" y="26" width="16" height="44"/>
    <rect x="488" y="36" width="12" height="34"/>
    <rect x="504" y="20" width="14" height="50"/>
    <rect x="522" y="28" width="10" height="42"/>
    <rect x="536" y="12" width="18" height="58"/>
    <rect x="558" y="32" width="12" height="38"/>
    <rect x="574" y="22" width="14" height="48"/>
    <rect x="592" y="38" width="10" height="32"/>
    <rect x="606" y="16" width="16" height="54"/>
    <rect x="626" y="30" width="11" height="40"/>
    <rect x="640" y="24" width="14" height="46"/>
    <rect x="658" y="8" width="12" height="62"/>
    <rect x="674" y="34" width="16" height="36"/>
    <rect x="694" y="20" width="10" height="50"/>
    <rect x="708" y="28" width="18" height="42"/>
    <rect x="730" y="14" width="12" height="56"/>
    <rect x="746" y="36" width="14" height="34"/>
    <rect x="764" y="22" width="10" height="48"/>
    <rect x="778" y="30" width="16" height="40"/>
  </g>
  <!-- antenna dots -->
  <g fill="#ff4444" opacity="0.4">
    <circle cx="84" cy="8" r="1.5"/>
    <circle cx="203" cy="10" r="1.5"/>
    <circle cx="307" cy="6" r="1.5"/>
    <circle cx="462" cy="8" r="1.5"/>
    <circle cx="545" cy="10" r="1.5"/>
    <circle cx="665" cy="6" r="1.5"/>
  </g>
</svg>
