<svg xmlns="http://www.w3.org/2000/svg" viewBox="0 0 960 80" preserveAspectRatio="none">
  <defs>
    <linearGradient id="mtn-near" x1="0" y1="0" x2="0" y2="1">
      <stop offset="0%" stop-color="#6a9a7a"/>
      <stop offset="60%" stop-color="#5a8a6a"/>
      <stop offset="100%" stop-color="#72a882"/>
    </linearGradient>
    <linearGradient id="mtn-near-fog" x1="0" y1="0.3" x2="0" y2="1">
      <stop offset="0%" stop-color="#c0d8e8" stop-opacity="0"/>
      <stop offset="100%" stop-color="#c0d8e8" stop-opacity="0.22"/>
    </linearGradient>
  </defs>
  <path d="M0,80 L0,55 Q40,40 80,48 Q120,30 160,38 Q200,25 240,35 Q280,22 320,32 Q360,20 400,28 Q440,32 480,26 Q520,35 560,30 Q600,25 640,38 Q680,28 720,35 Q760,22 800,30 Q840,38 880,28 Q920,40 960,35 L960,80Z" fill="url(#mtn-near)"/>
  <!-- tree silhouettes on hills -->
  <g fill="#4a7a58" opacity="0.5">
    <ellipse cx="80" cy="46" rx="8" ry="6"/>
    <ellipse cx="95" cy="44" rx="5" ry="4"/>
    <ellipse cx="200" cy="32" rx="7" ry="5"/>
    <ellipse cx="215" cy="34" rx="6" ry="5"/>
    <ellipse cx="350" cy="24" rx="8" ry="6"/>
    <ellipse cx="370" cy="26" rx="5" ry="4"/>
    <ellipse cx="500" cy="30" rx="7" ry="5"/>
    <ellipse cx="518" cy="28" rx="6" ry="5"/>
    <ellipse cx="660" cy="35" rx="8" ry="6"/>
    <ellipse cx="678" cy="33" rx="5" ry="4"/>
    <ellipse cx="820" cy="32" rx="7" ry="5"/>
    <ellipse cx="840" cy="30" rx="6" ry="5"/>
  </g>
  <rect y="45" width="960" height="35" fill="url(#mtn-near-fog)"/>
</svg>
