<svg xmlns="http://www.w3.org/2000/svg" viewBox="0 0 800 30" preserveAspectRatio="xMidYMax meet">
  <defs>
    <radialGradient id="s1" cx="50%" cy="55%" r="55%">
      <stop offset="0%" stop-color="#4a9a40"/><stop offset="100%" stop-color="#2a6a18"/>
    </radialGradient>
    <radialGradient id="s2" cx="50%" cy="55%" r="55%">
      <stop offset="0%" stop-color="#58a848"/><stop offset="100%" stop-color="#387a28"/>
    </radialGradient>
    <radialGradient id="s3" cx="50%" cy="55%" r="55%">
      <stop offset="0%" stop-color="#408838"/><stop offset="100%" stop-color="#205a10"/>
    </radialGradient>
  </defs>
  <g>
    <ellipse cx="30" cy="18" rx="10" ry="6" fill="url(#s1)"/>
    <ellipse cx="26" cy="20" rx="6" ry="4" fill="url(#s2)"/>

    <ellipse cx="100" cy="14" rx="12" ry="7" fill="url(#s2)"/>
    <ellipse cx="95" cy="16" rx="7" ry="4.5" fill="url(#s3)"/>

    <ellipse cx="175" cy="20" rx="9" ry="5.5" fill="url(#s3)"/>
    <ellipse cx="172" cy="22" rx="5.5" ry="3.5" fill="url(#s1)"/>

    <ellipse cx="250" cy="12" rx="11" ry="6.5" fill="url(#s1)"/>
    <ellipse cx="246" cy="14" rx="6.5" ry="4" fill="url(#s2)"/>

    <ellipse cx="330" cy="22" rx="8" ry="5" fill="url(#s2)"/>
    <ellipse cx="327" cy="24" rx="5" ry="3" fill="url(#s3)"/>

    <ellipse cx="400" cy="16" rx="13" ry="7" fill="url(#s3)"/>
    <ellipse cx="395" cy="18" rx="8" ry="5" fill="url(#s1)"/>

    <ellipse cx="480" cy="20" rx="10" ry="6" fill="url(#s1)"/>
    <ellipse cx="476" cy="22" rx="6" ry="4" fill="url(#s2)"/>

    <ellipse cx="560" cy="14" rx="11" ry="6.5" fill="url(#s2)"/>
    <ellipse cx="556" cy="16" rx="7" ry="4.5" fill="url(#s3)"/>

    <ellipse cx="640" cy="22" rx="9" ry="5.5" fill="url(#s3)"/>
    <ellipse cx="636" cy="24" rx="5.5" ry="3.5" fill="url(#s1)"/>

    <ellipse cx="720" cy="16" rx="12" ry="7" fill="url(#s1)"/>
    <ellipse cx="716" cy="18" rx="7" ry="4.5" fill="url(#s2)"/>

    <ellipse cx="780" cy="20" rx="8" ry="5" fill="url(#s2)"/>
  </g>
</svg>
