<svg xmlns="http://www.w3.org/2000/svg" viewBox="0 0 800 50" preserveAspectRatio="xMidYMax meet">
  <defs>
    <radialGradient id="crown1" cx="50%" cy="40%" r="55%">
      <stop offset="0%" stop-color="#5aaa48"/><stop offset="100%" stop-color="#3a7a28"/>
    </radialGradient>
    <radialGradient id="crown2" cx="50%" cy="40%" r="55%">
      <stop offset="0%" stop-color="#68b850"/><stop offset="100%" stop-color="#408830"/>
    </radialGradient>
    <radialGradient id="crown3" cx="50%" cy="40%" r="55%">
      <stop offset="0%" stop-color="#4a9a40"/><stop offset="100%" stop-color="#2a6a18"/>
    </radialGradient>
  </defs>
  <g>
    <!-- tree 1 -->
    <rect x="38" y="30" width="4" height="18" rx="1" fill="#6a4a28"/>
    <ellipse cx="40" cy="24" rx="12" ry="10" fill="url(#crown1)"/>
    <ellipse cx="34" cy="28" rx="8" ry="7" fill="url(#crown1)"/>
    <ellipse cx="46" cy="27" rx="7" ry="6" fill="url(#crown2)"/>
    <ellipse cx="42" cy="20" rx="5" ry="4" fill="#6abb55" opacity="0.5"/>

    <!-- tree 2 (smaller) -->
    <rect x="108" y="34" width="3" height="14" rx="1" fill="#5a3a20"/>
    <ellipse cx="110" cy="28" rx="9" ry="8" fill="url(#crown2)"/>
    <ellipse cx="105" cy="32" rx="6" ry="5" fill="url(#crown2)"/>
    <ellipse cx="115" cy="30" rx="5" ry="5" fill="url(#crown3)"/>
    <ellipse cx="111" cy="24" rx="4" ry="3" fill="#72c058" opacity="0.5"/>

    <!-- tree 3 (big) -->
    <rect x="198" y="26" width="5" height="22" rx="1" fill="#6a4a28"/>
    <ellipse cx="200" cy="18" rx="15" ry="13" fill="url(#crown3)"/>
    <ellipse cx="190" cy="24" rx="10" ry="8" fill="url(#crown3)"/>
    <ellipse cx="210" cy="22" rx="9" ry="7" fill="url(#crown1)"/>
    <ellipse cx="203" cy="12" rx="6" ry="5" fill="#5aaa48" opacity="0.5"/>

    <!-- tree 4 -->
    <rect x="288" y="32" width="3.5" height="16" rx="1" fill="#5a3a20"/>
    <ellipse cx="290" cy="26" rx="11" ry="9" fill="url(#crown1)"/>
    <ellipse cx="283" cy="30" rx="7" ry="6" fill="url(#crown2)"/>
    <ellipse cx="297" cy="28" rx="6" ry="5" fill="url(#crown1)"/>
    <ellipse cx="291" cy="22" rx="4.5" ry="3.5" fill="#68b850" opacity="0.5"/>

    <!-- tree 5 (small) -->
    <rect x="368" y="36" width="3" height="12" rx="1" fill="#6a4a28"/>
    <ellipse cx="370" cy="31" rx="8" ry="7" fill="url(#crown2)"/>
    <ellipse cx="365" cy="34" rx="5.5" ry="4.5" fill="url(#crown3)"/>
    <ellipse cx="375" cy="33" rx="5" ry="4" fill="url(#crown2)"/>

    <!-- tree 6 (big) -->
    <rect x="458" y="28" width="5" height="20" rx="1" fill="#5a3a20"/>
    <ellipse cx="460" cy="20" rx="14" ry="12" fill="url(#crown1)"/>
    <ellipse cx="450" cy="26" rx="9" ry="7" fill="url(#crown1)"/>
    <ellipse cx="470" cy="24" rx="8" ry="7" fill="url(#crown3)"/>
    <ellipse cx="462" cy="14" rx="5.5" ry="4.5" fill="#72c058" opacity="0.5"/>

    <!-- tree 7 -->
    <rect x="548" y="33" width="3.5" height="15" rx="1" fill="#6a4a28"/>
    <ellipse cx="550" cy="27" rx="10" ry="8.5" fill="url(#crown3)"/>
    <ellipse cx="544" cy="31" rx="7" ry="5.5" fill="url(#crown2)"/>
    <ellipse cx="556" cy="29" rx="6" ry="5" fill="url(#crown3)"/>
    <ellipse cx="551" cy="22" rx="4" ry="3" fill="#5aaa48" opacity="0.5"/>

    <!-- tree 8 (small) -->
    <rect x="638" y="35" width="3" height="13" rx="1" fill="#5a3a20"/>
    <ellipse cx="640" cy="30" rx="8.5" ry="7" fill="url(#crown1)"/>
    <ellipse cx="635" cy="33" rx="6" ry="5" fill="url(#crown1)"/>
    <ellipse cx="645" cy="32" rx="5.5" ry="4.5" fill="url(#crown2)"/>

    <!-- tree 9 -->
    <rect x="718" y="30" width="4" height="18" rx="1" fill="#6a4a28"/>
    <ellipse cx="720" cy="22" rx="13" ry="11" fill="url(#crown2)"/>
    <ellipse cx="712" cy="27" rx="8.5" ry="7" fill="url(#crown3)"/>
    <ellipse cx="728" cy="25" rx="7.5" ry="6.5" fill="url(#crown2)"/>
    <ellipse cx="722" cy="16" rx="5" ry="4" fill="#68b850" opacity="0.5"/>
  </g>
  <!-- tree shadows -->
  <g fill="rgba(0,0,0,0.06)">
    <ellipse cx="42" cy="48" rx="14" ry="3"/>
    <ellipse cx="111" cy="48" rx="10" ry="2.5"/>
    <ellipse cx="202" cy="48" rx="16" ry="3.5"/>
    <ellipse cx="291" cy="48" rx="12" ry="3"/>
    <ellipse cx="371" cy="48" rx="9" ry="2.5"/>
    <ellipse cx="462" cy="48" rx="15" ry="3.5"/>
    <ellipse cx="551" cy="48" rx="11" ry="2.8"/>
    <ellipse cx="641" cy="48" rx="9.5" ry="2.5"/>
    <ellipse cx="722" cy="48" rx="14" ry="3"/>
  </g>
</svg>
